<svg width="256" height="256" viewBox="0 0 256 256" fill="none" xmlns="http://www.w3.org/2000/svg" role="img" aria-label="MiniCI Logo">
	<defs>
		<linearGradient id="badge" x1="64" y1="28" x2="206" y2="232" gradientUnits="userSpaceOnUse">
			<stop offset="0" stop-color="#123B66" />
			<stop offset="1" stop-color="#071B33" />
		</linearGradient>

		<linearGradient id="teal" x1="72" y1="64" x2="196" y2="196" gradientUnits="userSpaceOnUse">
			<stop offset="0" stop-color="#27E3D3" />
			<stop offset="1" stop-color="#14B8A6" />
		</linearGradient>
	</defs>

	<!-- Transparent background by default: no rect fill -->

	<!-- Hex badge -->
	<path
		d="M128 18 L223.3 73 L223.3 183 L128 238 L32.7 183 L32.7 73 Z"
		fill="url(#badge)"
	/>

	<!-- Connectors (behind nodes) -->
	<path
		d="M104 128 H114 Q122 128 122 120 V104 Q122 92 134 92 H148"
		stroke="url(#teal)"
		stroke-width="12"
		stroke-linecap="round"
		stroke-linejoin="round"
		fill="none"
	/>
	<path
		d="M104 128 H114 Q122 128 122 136 V152 Q122 164 134 164 H148"
		stroke="url(#teal)"
		stroke-width="12"
		stroke-linecap="round"
		stroke-linejoin="round"
		fill="none"
	/>
	<path
		d="M148 92 H152"
		stroke="url(#teal)"
		stroke-width="12"
		stroke-linecap="round"
		stroke-linejoin="round"
		fill="none"
	/>
	<path
		d="M148 164 H152"
		stroke="url(#teal)"
		stroke-width="12"
		stroke-linecap="round"
		stroke-linejoin="round"
		fill="none"
	/>

	<!-- Nodes -->
	<rect x="64" y="108" width="40" height="40" rx="12" fill="url(#teal)" />
	<rect x="108" y="72" width="40" height="40" rx="12" fill="url(#teal)" />
	<rect x="152" y="72" width="40" height="40" rx="12" fill="url(#teal)" />
	<rect x="108" y="144" width="40" height="40" rx="12" fill="url(#teal)" />
	<rect x="152" y="144" width="40" height="40" rx="12" fill="url(#teal)" />

	<!-- Check mark -->
	<path
		d="M165 165 L171 171 L182 158"
		stroke="#071B33"
		stroke-width="7"
		stroke-linecap="round"
		stroke-linejoin="round"
		fill="none"
	/>
</svg>
